# 3ds Max Wavefront OBJ Exporter v0.97b - (c)2007 guruware
# File Created: 28.06.2020 19:43:13

#
# object rope_segment
#

v  -0.500000000000 0.004774596076 0.000000001863
v  -0.500000000000 -0.010676253587 -0.047552824020
v  -0.500000000000 -0.045225404203 0.000000001863
v  -0.500000000000 0.045225448906 -0.029389258474
v  -0.500000000000 0.045225445181 0.029389269650
v  -0.500000000000 -0.010676261038 0.047552824020
v  -0.300000011921 -0.010676262900 -0.047552831471
v  -0.300000011921 -0.045225415379 0.000000001863
v  -0.300000011921 0.045225445181 -0.029389260337
v  -0.300000011921 0.045225441456 0.029389273375
v  -0.300000011921 -0.010676270351 0.047552831471
v  -0.099999994040 -0.010676272213 -0.047552831471
v  -0.099999994040 -0.045225426555 0.000000001863
v  -0.099999994040 0.045225434005 -0.029389260337
v  -0.099999994040 0.045225430280 0.029389273375
v  -0.099999994040 -0.010676279664 0.047552831471
v  0.100000023842 -0.010676279664 -0.047552824020
v  0.100000023842 -0.045225430280 0.000000001863
v  0.100000023842 0.045225422829 -0.029389258474
v  0.100000023842 0.045225419104 0.029389269650
v  0.100000023842 -0.010676287115 0.047552824020
v  0.300000011921 -0.010676288977 -0.047552831471
v  0.300000011921 -0.045225441456 0.000000001863
v  0.300000011921 0.045225419104 -0.029389260337
v  0.300000011921 0.045225415379 0.029389273375
v  0.300000011921 -0.010676296428 0.047552831471
v  0.500000000000 -0.010676296428 -0.047552824020
v  0.500000000000 -0.045225448906 0.000000001863
v  0.500000000000 0.045225404203 -0.029389258474
v  0.500000000000 0.045225400478 0.029389269650
v  0.500000000000 -0.010676303878 0.047552824020
v  0.500000000000 0.004774552304 0.000000001863
# 32 vertices

vn -1.000000000000 0.000000043711 -0.000000000000
vn -0.000000061578 -1.000000000000 -0.000000093806
vn -0.000000022959 -0.309016972780 -0.951056540012
vn -0.000000050122 -1.000000000000 0.000000011726
vn -0.000000032218 -0.309016942978 -0.951056540012
vn 0.000000023779 0.809017062187 -0.587785184383
vn 0.000000014820 0.809017062187 -0.587785124779
vn 0.000000020427 0.809016942978 0.587785363197
vn 0.000000012282 0.809016883373 0.587785422802
vn -0.000000024993 -0.309017091990 0.951056480408
vn -0.000000032299 -0.309017151594 0.951056480408
vn -0.000000004152 -0.309017002583 -0.951056540012
vn -0.000000034778 -1.000000000000 -0.000000011726
vn 0.000000045635 0.809017002583 -0.587785243988
vn 0.000000046347 0.809016942978 0.587785363197
vn -0.000000004112 -0.309017121792 0.951056480408
vn -0.000000013412 -0.309016942978 -0.951056540012
vn -0.000000046234 -1.000000000000 -0.000000058629
vn 0.000000036676 0.809017002583 -0.587785243988
vn 0.000000035699 0.809016883373 0.587785363197
vn -0.000000013921 -0.309017091990 0.951056480408
vn -0.000000013604 -0.309016972780 -0.951056540012
vn -0.000000041189 -1.000000000000 -0.000000011726
vn 0.000000034051 0.809017002583 -0.587785243988
vn 0.000000031411 0.809016942978 0.587785363197
vn -0.000000015597 -0.309017121792 0.951056480408
vn 0.000000005395 -0.309017062187 -0.951056480408
vn -0.000000030890 -1.000000000000 -0.000000017589
vn 0.000000058532 0.809017002583 -0.587785243988
vn 0.000000059116 0.809017002583 0.587785243988
vn 0.000000004456 -0.309017002583 0.951056540012
vn 1.000000000000 -0.000000043711 -0.000000000000
# 32 vertex normals

vt 0.500000000000 0.000000000000 0.000000000000
vt 0.949999988079 0.000000000000 1.000000000000
vt 0.750000000000 0.000000000000 1.000000000000
vt 0.150000020862 0.000000000000 0.999999940395
vt -0.050000011921 0.000000000000 1.000000000000
vt 0.350000023842 0.000000000000 1.000000000000
vt 0.550000011921 0.000000000000 1.000000000000
vt 0.949999988079 0.199999988079 1.000000000000
vt 0.750000000000 0.199999988079 1.000000119209
vt 0.150000020862 0.199999988079 1.000000000000
vt -0.050000011921 0.199999988079 1.000000000000
vt 0.350000023842 0.199999988079 1.000000119209
vt 0.550000011921 0.199999988079 1.000000000000
vt 0.949999988079 0.400000005960 1.000000000000
vt 0.750000000000 0.400000005960 1.000000119209
vt 0.150000020862 0.400000005960 1.000000000000
vt -0.050000011921 0.400000005960 1.000000000000
vt 0.350000023842 0.400000005960 1.000000119209
vt 0.550000011921 0.400000005960 1.000000000000
vt 0.949999988079 0.600000023842 1.000000000000
vt 0.750000000000 0.600000023842 1.000000000000
vt 0.150000020862 0.600000023842 0.999999940395
vt -0.050000011921 0.600000023842 1.000000000000
vt 0.350000023842 0.600000023842 1.000000000000
vt 0.550000011921 0.600000023842 1.000000000000
vt 0.949999988079 0.800000011921 1.000000000000
vt 0.750000000000 0.800000011921 1.000000119209
vt 0.150000020862 0.800000011921 1.000000000000
vt -0.050000011921 0.800000011921 1.000000000000
vt 0.350000023842 0.800000011921 1.000000119209
vt 0.550000011921 0.800000011921 1.000000000000
vt 0.949999988079 1.000000000000 1.000000000000
vt 0.750000000000 1.000000000000 1.000000000000
vt 0.150000020862 1.000000000000 0.999999940395
vt -0.050000011921 1.000000000000 1.000000000000
vt 0.350000023842 1.000000000000 1.000000000000
vt 0.550000011921 1.000000000000 1.000000000000
vt 0.500000000000 1.000000000000 0.000000000000
# 38 texture coords

o rope_segment
g rope_segment
f 1/1/1 2/2/1 3/3/1 
f 1/1/1 4/4/1 2/5/1 
f 1/1/1 5/6/1 4/4/1 
f 1/1/1 6/7/1 5/6/1 
f 1/1/1 3/3/1 6/7/1 
f 3/3/2 7/8/3 8/9/4 
f 3/3/2 2/2/5 7/8/3 
f 2/5/5 9/10/6 7/11/3 
f 2/5/5 4/4/7 9/10/6 
f 4/4/7 10/12/8 9/10/6 
f 4/4/7 5/6/9 10/12/8 
f 5/6/9 11/13/10 10/12/8 
f 5/6/9 6/7/11 11/13/10 
f 6/7/11 8/9/4 11/13/10 
f 6/7/11 3/3/2 8/9/4 
f 8/9/4 12/14/12 13/15/13 
f 8/9/4 7/8/3 12/14/12 
f 7/11/3 14/16/14 12/17/12 
f 7/11/3 9/10/6 14/16/14 
f 9/10/6 15/18/15 14/16/14 
f 9/10/6 10/12/8 15/18/15 
f 10/12/8 16/19/16 15/18/15 
f 10/12/8 11/13/10 16/19/16 
f 11/13/10 13/15/13 16/19/16 
f 11/13/10 8/9/4 13/15/13 
f 13/15/13 17/20/17 18/21/18 
f 13/15/13 12/14/12 17/20/17 
f 12/17/12 19/22/19 17/23/17 
f 12/17/12 14/16/14 19/22/19 
f 14/16/14 20/24/20 19/22/19 
f 14/16/14 15/18/15 20/24/20 
f 15/18/15 21/25/21 20/24/20 
f 15/18/15 16/19/16 21/25/21 
f 16/19/16 18/21/18 21/25/21 
f 16/19/16 13/15/13 18/21/18 
f 18/21/18 22/26/22 23/27/23 
f 18/21/18 17/20/17 22/26/22 
f 17/23/17 24/28/24 22/29/22 
f 17/23/17 19/22/19 24/28/24 
f 19/22/19 25/30/25 24/28/24 
f 19/22/19 20/24/20 25/30/25 
f 20/24/20 26/31/26 25/30/25 
f 20/24/20 21/25/21 26/31/26 
f 21/25/21 23/27/23 26/31/26 
f 21/25/21 18/21/18 23/27/23 
f 23/27/23 27/32/27 28/33/28 
f 23/27/23 22/26/22 27/32/27 
f 22/29/22 29/34/29 27/35/27 
f 22/29/22 24/28/24 29/34/29 
f 24/28/24 30/36/30 29/34/29 
f 24/28/24 25/30/25 30/36/30 
f 25/30/25 31/37/31 30/36/30 
f 25/30/25 26/31/26 31/37/31 
f 26/31/26 28/33/28 31/37/31 
f 26/31/26 23/27/23 28/33/28 
f 32/38/32 28/33/32 27/32/32 
f 32/38/32 27/35/32 29/34/32 
f 32/38/32 29/34/32 30/36/32 
f 32/38/32 30/36/32 31/37/32 
f 32/38/32 31/37/32 28/33/32 
# 60 faces

