# 3ds Max Wavefront OBJ Exporter v0.97b - (c)2007 guruware
# File Created: 22.06.2020 16:11:34

#
# object Wall
#

v  0.145412862301 0.000000000000 -0.000000000000
v  0.090663440526 0.000000000000 -0.113688364625
v  0.090663440526 2.181193113327 -0.113688364625
v  0.145412862301 2.181193113327 -0.000000000000
v  -0.032357409596 0.000000000000 -0.141767069697
v  -0.032357409596 2.181193113327 -0.141767069697
v  -0.131012484431 0.000000000000 -0.063092261553
v  -0.131012484431 1.928247094154 -0.063092254102
v  -0.131012484431 2.181193113327 -0.063092261553
v  -2.989252805710 -0.000000000000 -0.063091948628
v  -2.989252805710 -0.000000000000 0.063092596829
v  -2.989252805710 1.928247094154 0.063092596829
v  -2.989252805710 1.928247094154 -0.063091941178
v  -0.131012469530 0.000000000000 0.063092283905
v  -0.032357420772 0.000000000000 0.141767069697
v  -0.032357420772 2.181193113327 0.141767069697
v  -0.131012469530 2.181193113327 0.063092283905
v  -0.131012469530 1.928247094154 0.063092283905
v  0.090663418174 0.000000000000 0.113688386977
v  0.090663418174 2.181193113327 0.113688386977
v  0.183398336172 2.246924161911 -0.000000001553
v  0.114347003400 2.246924161911 -0.143386617303
v  -0.040809970349 2.246924161911 -0.178800165653
v  -0.165236204863 2.246924161911 -0.079573534429
v  -0.165236189961 2.246924161911 0.079573564231
v  -0.040809985250 2.246924161911 0.178800135851
v  0.114346973598 2.246924161911 0.143386617303
v  0.114347003400 2.199238300323 -0.143386617303
v  0.183398336172 2.199238300323 -0.000000001553
v  -0.040809970349 2.199238300323 -0.178800165653
v  -0.165236204863 2.199238300323 -0.079573534429
v  -0.165236189961 2.199238300323 0.079573564231
v  -0.040809985250 2.199238300323 0.178800135851
v  0.114346973598 2.199238300323 0.143386617303
# 34 vertices

vn 1.000000000000 0.000000000000 0.000000063174
vn 0.623489856720 0.000000000000 -0.781831502914
vn -0.222521021962 0.000000000000 -0.974927902222
vn -0.623489856720 0.000000000000 -0.781831443310
vn -0.820811629295 0.000000000000 -0.571198999882
vn -0.900968968868 0.000000000000 -0.433883756399
vn -1.000000000000 0.000000000000 -0.000000000000
vn -0.623489856720 0.000000000000 0.781831443310
vn -0.222521066666 0.000000000000 0.974927902222
vn -0.900968909264 0.000000000000 0.433883786201
vn -0.820811629295 0.000000000000 0.571199119091
vn 0.623489677906 0.000000000000 0.781831562519
vn 0.000000000000 -1.000000000000 -0.000000000000
vn 0.000000000000 1.000000000000 -0.000000000000
vn -0.000000109166 0.000000003596 -1.000000000000
vn 0.000000000000 -0.999999940395 -0.000000000000
vn 0.000000109166 0.000000000000 1.000000000000
vn 0.420220434666 -0.884568989277 -0.202367454767
vn 0.420220375061 -0.884568929672 -0.202367439866
vn 0.420220404863 -0.884568870068 -0.202367439866
vn 0.103785842657 -0.884569048882 -0.454715549946
vn 0.103785835207 -0.884568989277 -0.454715549946
vn -0.290801554918 -0.884568929672 -0.364653527737
vn -0.290801554918 -0.884568989277 -0.364653557539
vn -0.290801525116 -0.884568929672 -0.364653557539
vn -0.466409444809 -0.884568929672 0.000000043383
vn -0.466409415007 -0.884568989277 0.000000043383
vn -0.466409444809 -0.884568989277 0.000000043383
vn -0.290801584721 -0.884568870068 0.364653646946
vn -0.290801554918 -0.884568929672 0.364653646946
vn -0.290801554918 -0.884568870068 0.364653646946
vn 0.103785842657 -0.884568929672 0.454715818167
vn 0.103785835207 -0.884568870068 0.454715847969
vn 0.103785820305 -0.884568810463 0.454715758562
vn 0.103785842657 -0.884568870068 0.454715818167
vn 0.420220434666 -0.884568870068 0.202367529273
vn 0.420220464468 -0.884568929672 0.202367559075
vn 0.420220434666 -0.884568929672 0.202367529273
vn 0.420220464468 -0.884568870068 0.202367544174
vn 0.900968909264 0.000000000000 -0.433883696795
vn 0.222520902753 0.000000000000 -0.974927961826
vn -0.623489916325 0.000000000000 -0.781831383705
vn -1.000000000000 0.000000000000 0.000000087137
vn -0.623489856720 0.000000000000 0.781831562519
vn 0.222520738840 0.000000000000 0.974927961826
vn 0.900968849659 0.000000000000 0.433883786201
# 46 vertex normals

vt 0.009999999776 0.739426553249 0.000000000000
vt 0.009999999776 0.721835672855 0.000000000000
vt 0.347493797541 0.721835672855 0.000000000000
vt 0.347493797541 0.739426553249 0.000000000000
vt 0.486552327871 0.347493797541 0.000000000000
vt 0.467517435551 0.347493797541 0.000000000000
vt 0.467517435551 0.009999999776 0.000000000000
vt 0.486552327871 0.009999999776 0.000000000000
vt 0.452252626419 0.347493797541 0.000000000000
vt 0.452252626419 0.049138076603 0.000000000000
vt 0.452252626419 0.009999999776 0.000000000000
vt 0.188196584582 0.397576361895 0.000000000000
vt 0.188196584582 0.378051936626 0.000000000000
vt 0.486552298069 0.378051936626 0.000000000000
vt 0.486552298069 0.397576361895 0.000000000000
vt 0.044299684465 0.703411638737 0.000000000000
vt 0.029034888372 0.703411638737 0.000000000000
vt 0.029034888372 0.365917831659 0.000000000000
vt 0.044299684465 0.365917831659 0.000000000000
vt 0.044299684465 0.405055910349 0.000000000000
vt 0.009999999776 0.703411638737 0.000000000000
vt 0.009999999776 0.365917831659 0.000000000000
vt 0.009999999776 0.757017493248 0.000000000000
vt 0.347493797541 0.757017493248 0.000000000000
vt 0.513447761536 0.014344586059 0.000000000000
vt 0.532482624054 0.009999999776 0.000000000000
vt 0.547747433186 0.022173268721 0.000000000000
vt 0.547747433186 0.041697680950 0.000000000000
vt 0.532482624054 0.053870946169 0.000000000000
vt 0.513447761536 0.049526363611 0.000000000000
vt 0.504976391792 0.031935475767 0.000000000000
vt 0.037665564567 0.781582832336 0.000000000000
vt 0.059851631522 0.792267024517 0.000000000000
vt 0.065331138670 0.816274344921 0.000000000000
vt 0.049977898598 0.835526585579 0.000000000000
vt 0.025353228673 0.835526585579 0.000000000000
vt 0.009999999776 0.816274344921 0.000000000000
vt 0.015479499474 0.792267024517 0.000000000000
vt 0.142917171121 0.378051936626 0.000000000000
vt 0.182055249810 0.378051936626 0.000000000000
vt 0.182055249810 0.397576361895 0.000000000000
vt 0.142917171121 0.397576361895 0.000000000000
vt 0.009999999776 0.347493797541 0.000000000000
vt 0.009999999776 0.049138076603 0.000000000000
vt 0.990000009537 0.022173222154 0.000000000000
vt 0.990000009537 0.041697628796 0.000000000000
vt 0.486552298069 0.405055910349 0.000000000000
vt 0.486552298069 0.703411638737 0.000000000000
vt 0.504976272583 0.385442227125 0.000000000000
vt 0.504976272583 0.365917831659 0.000000000000
vt 0.947228848934 0.365917891264 0.000000000000
vt 0.947228848934 0.385442316532 0.000000000000
vt 0.532641947269 0.078172415495 0.000000000000
vt 0.515051066875 0.086643733084 0.000000000000
vt 0.510455906391 0.082979202271 0.000000000000
vt 0.532641947269 0.072294957936 0.000000000000
vt 0.510706424713 0.105678625405 0.000000000000
vt 0.504976391792 0.106986485422 0.000000000000
vt 0.522879719734 0.120943427086 0.000000000000
vt 0.520329594612 0.126238822937 0.000000000000
vt 0.542404115200 0.120943419635 0.000000000000
vt 0.544954299927 0.126238822937 0.000000000000
vt 0.554577410221 0.105678625405 0.000000000000
vt 0.560307502747 0.106986485422 0.000000000000
vt 0.550232827663 0.086643733084 0.000000000000
vt 0.554827988148 0.082979202271 0.000000000000
vt 0.114589758217 0.397576361895 0.000000000000
vt 0.092403687537 0.397576361895 0.000000000000
vt 0.092403687537 0.390197962523 0.000000000000
vt 0.114589758217 0.390197962523 0.000000000000
vt 0.136775836349 0.384056657553 0.000000000000
vt 0.112768545747 0.384056657553 0.000000000000
vt 0.112768545747 0.376678228378 0.000000000000
vt 0.136775836349 0.376678228378 0.000000000000
vt 0.093516208231 0.384056657553 0.000000000000
vt 0.093516208231 0.376678228378 0.000000000000
vt 0.386330544949 0.041658505797 0.000000000000
vt 0.386330544949 0.017033832148 0.000000000000
vt 0.393708914518 0.017033832148 0.000000000000
vt 0.393708914518 0.041658505797 0.000000000000
vt 0.443109869957 0.041658513248 0.000000000000
vt 0.423857539892 0.041658513248 0.000000000000
vt 0.423857539892 0.034280128777 0.000000000000
vt 0.443109869957 0.034280128777 0.000000000000
vt 0.399850249290 0.041658513248 0.000000000000
vt 0.399850249290 0.034280128777 0.000000000000
vt 0.136775836349 0.397576361895 0.000000000000
vt 0.136775836349 0.390197962523 0.000000000000
# 88 texture coords

o Wall
g Wall
f 1/1/1 2/2/2 3/3/2 
f 3/3/2 4/4/1 1/1/1 
f 2/5/2 5/6/3 6/7/3 
f 6/7/3 3/8/2 2/5/2 
f 5/6/3 7/9/4 8/10/5 
f 5/6/3 8/10/5 9/11/6 
f 5/6/3 9/11/6 6/7/3 
f 10/12/7 11/13/7 12/14/7 
f 12/14/7 13/15/7 10/12/7 
f 14/16/8 15/17/9 16/18/9 
f 14/16/8 16/18/9 17/19/10 
f 14/16/8 17/19/10 18/20/11 
f 15/17/9 19/21/12 20/22/12 
f 20/22/12 16/18/9 15/17/9 
f 19/23/12 1/1/1 4/4/1 
f 4/4/1 20/24/12 19/23/12 
f 19/25/13 15/26/13 14/27/13 
f 19/25/13 14/27/13 7/28/13 
f 19/25/13 7/28/13 5/29/13 
f 19/25/13 5/29/13 2/30/13 
f 19/25/13 2/30/13 1/31/13 
f 21/32/14 22/33/14 23/34/14 
f 21/32/14 23/34/14 24/35/14 
f 21/32/14 24/35/14 25/36/14 
f 21/32/14 25/36/14 26/37/14 
f 21/32/14 26/37/14 27/38/14 
f 18/39/11 17/40/10 9/41/6 
f 9/41/6 8/42/5 18/39/11 
f 8/10/15 7/9/15 10/43/15 
f 10/43/15 13/44/15 8/10/15 
f 7/28/13 14/27/13 11/45/13 
f 11/45/13 10/46/16 7/28/13 
f 14/16/17 18/20/17 12/47/17 
f 12/47/17 11/48/17 14/16/17 
f 18/49/14 8/50/14 13/51/14 
f 13/51/14 12/52/14 18/49/14 
f 4/53/18 3/54/18 28/55/19 
f 28/55/19 29/56/20 4/53/18 
f 3/54/21 6/57/21 30/58/22 
f 30/58/22 28/55/22 3/54/21 
f 6/57/23 9/59/23 31/60/24 
f 31/60/24 30/58/25 6/57/23 
f 9/59/26 17/61/26 32/62/27 
f 32/62/27 31/60/28 9/59/26 
f 17/61/29 16/63/30 33/64/31 
f 33/64/31 32/62/31 17/61/29 
f 16/63/32 20/65/33 34/66/34 
f 34/66/34 33/64/35 16/63/32 
f 20/65/36 4/53/37 29/56/38 
f 29/56/38 34/66/39 20/65/36 
f 29/67/40 28/68/40 22/69/40 
f 22/69/40 21/70/40 29/67/40 
f 28/71/41 30/72/41 23/73/41 
f 23/73/41 22/74/41 28/71/41 
f 30/72/42 31/75/42 24/76/42 
f 24/76/42 23/73/42 30/72/42 
f 31/77/43 32/78/43 25/79/43 
f 25/79/43 24/80/43 31/77/43 
f 32/81/44 33/82/44 26/83/44 
f 26/83/44 25/84/44 32/81/44 
f 33/82/45 34/85/45 27/86/45 
f 27/86/45 26/83/45 33/82/45 
f 34/87/46 29/67/46 21/70/46 
f 21/70/46 27/88/46 34/87/46 
# 64 faces

