# ProBuilder 4.3.0
# https://unity3d.com/unity/features/worldbuilding/probuilder
# 17.06.2020 09:38:20

mtllib ./Cube(1).mtl
o Cube(1)

g Cube(1)
v 0 0 6
v -7 0 6
v 0 8 6
v -7 8 6
v -7 0 -1
v -7 8 -1
v 0 0 -1
v 0 8 -1

vt 0 0
vt -7 0
vt 0 8
vt -7 8
vt 6 0
vt -1 0
vt 6 8
vt -1 8
vt 7 0
vt 7 8
vt 1 0
vt -6 0
vt 1 8
vt -6 8
vt 0 6
vt 7 6
vt 0 -1
vt 7 -1
vt -7 -1
vt -7 6

vn 0 0 1
vn -1 0 0
vn 0 0 -1
vn 1 0 0
vn 0 1 0
vn 0 -1 0

usemtl ProBuilderDefault
f 3/3/1 4/4/1 2/2/1 1/1/1
f 4/7/2 6/8/2 5/6/2 2/5/2
f 6/10/3 8/3/3 7/1/3 5/9/3
f 8/13/4 3/14/4 1/12/4 7/11/4
f 8/17/5 6/18/5 4/16/5 3/15/5
f 1/15/6 2/20/6 5/19/6 7/17/6

