# ProBuilder 4.3.0
# https://unity3d.com/unity/features/worldbuilding/probuilder
# 17.06.2020 12:36:39

mtllib ./Cube.mtl
o Cube

g Cube
v 0 0 0
v -70 0 0
v 0 0.001 0
v -70 0.001 0
v -70 0 -45
v -70 0.001 -45
v 0 0 -45
v 0 0.001 -45

vt 0 0
vt -70 0
vt 0 0.001
vt -70 0.001
vt -45 0
vt -45 0.001
vt 70 0
vt 70 0.001
vt 45 0
vt 45 0.001
vt 0 -45
vt 70 -45
vt -70 -45

vn 0 0 1
vn -1 0 0
vn 0 0 -1
vn 1 0 0
vn 0 1 0
vn 0 -1 0

usemtl ProBuilderDefault
f 3/3/1 4/4/1 2/2/1 1/1/1
f 4/3/2 6/6/2 5/5/2 2/1/2
f 6/8/3 8/3/3 7/1/3 5/7/3
f 8/10/4 3/3/4 1/1/4 7/9/4
f 8/11/5 6/12/5 4/7/5 3/1/5
f 1/1/6 2/2/6 5/13/6 7/11/6

