# ProBuilder 4.3.0
# https://unity3d.com/unity/features/worldbuilding/probuilder
# 17.06.2020 09:38:20

mtllib ./Cube(15).mtl
o Cube(15)

g Cube(15)
v -11 0 5
v -12 0 5
v -11 2 5
v -12 2 5
v -12 0 -2.270088
v -12 2 -2.270088
v -11 0 -2.270088
v -11 2 -2.270088

vt -11 0
vt -12 0
vt -11 2
vt -12 2
vt 4.999995 0
vt -2.270093 0
vt 4.999995 2
vt -2.270093 2
vt 12 0
vt 11 0
vt 12 2
vt 11 2
vt 2.270092 0
vt -4.999996 0
vt 2.270092 2
vt -4.999996 2
vt 11 5
vt 12 5
vt 11 -2.270088
vt 12 -2.270088
vt -11 -2.270088
vt -12 -2.270088
vt -11 5
vt -12 5

vn 0 0 1
vn -1 0 3.935335E-07
vn 0 0 -1
vn 1 0 -3.935335E-07
vn 0 1 0
vn 0 -1 0

usemtl ProBuilderDefault
f 3/3/1 4/4/1 2/2/1 1/1/1
f 4/7/2 6/8/2 5/6/2 2/5/2
f 6/11/3 8/12/3 7/10/3 5/9/3
f 8/15/4 3/16/4 1/14/4 7/13/4
f 8/19/5 6/20/5 4/18/5 3/17/5
f 1/23/6 2/24/6 5/22/6 7/21/6

