# 3ds Max Wavefront OBJ Exporter v0.97b - (c)2007 guruware
# File Created: 20.06.2020 11:29:25

#
# object Pistol_45mm_Case
#

v  0.007788618095 -0.040632814169 0.013489438221
v  0.015577239916 -0.040632810444 -0.000000848719
v  0.015577239916 0.040460754186 -0.000000821217
v  0.007788618095 0.040460750461 0.013489467092
v  -0.007788619958 -0.040632825345 0.013489438221
v  -0.007788619958 0.040460750461 0.013489467092
v  -0.015577239916 -0.040632810444 -0.000000848719
v  -0.015577239916 0.040460757911 -0.000000821217
v  -0.007788618095 -0.040632795542 -0.013491134159
v  -0.007788618095 0.040460769087 -0.013491108082
v  0.007788618095 -0.040632795542 -0.013491134159
v  0.007788618095 0.040460769087 -0.013491108082
v  0.006820520852 -0.040632825345 0.011812641285
v  0.013641041704 -0.040632810444 -0.000000848719
v  -0.006820520852 -0.040632814169 0.011812641285
v  -0.013641041704 -0.040632810444 -0.000000848719
v  -0.006820519455 -0.040632795542 -0.011814336292
v  0.006820519455 -0.040632795542 -0.011814336292
v  0.006820520852 -0.043500285596 0.011812641285
v  0.013641041704 -0.043500266969 -0.000000849186
v  -0.006820520852 -0.043500270694 0.011812641285
v  -0.013641041704 -0.043500266969 -0.000000849186
v  -0.006820519455 -0.043500263244 -0.011814336292
v  0.006820519455 -0.043500263244 -0.011814336292
v  0.007855124772 -0.043500285596 0.013604630716
v  0.015710249543 -0.043500266969 -0.000000849186
v  -0.007855126634 -0.043500270694 0.013604630716
v  -0.015710249543 -0.043500266969 -0.000000849186
v  -0.007855121978 -0.043500263244 -0.013606326655
v  0.007855121978 -0.043500263244 -0.013606326655
v  0.007855124772 -0.047113969922 0.013604629785
v  0.015710249543 -0.047113966197 -0.000000849775
v  -0.007855126634 -0.047113969922 0.013604629785
v  -0.015710249543 -0.047113966197 -0.000000849775
v  -0.007855121978 -0.047113951296 -0.013606327586
v  0.007855121978 -0.047113951296 -0.013606327586
v  0.013046839274 0.040460754186 -0.000000822067
v  0.006523419172 0.040460754186 0.011298076250
v  -0.006523419637 0.040460754186 0.011298076250
v  -0.013046839274 0.040460757911 -0.000000822067
v  -0.006523419172 0.040460765362 -0.011299718171
v  0.006523419172 0.040460765362 -0.011299718171
v  0.013046839274 -0.015699788928 -0.000000822067
v  0.006523419172 -0.015699790791 0.011298075318
v  -0.006523419637 -0.015699790791 0.011298075318
v  -0.013046839274 -0.015699781477 -0.000000822067
v  -0.006523419172 -0.015699774027 -0.011299719103
v  0.006523419172 -0.015699774027 -0.011299719103
# 48 vertices

vn 0.499999910593 -0.000000298197 0.866025388241
vn 1.000000000000 -0.000000007454 -0.000000008215
vn 1.000000000000 -0.000000001863 -0.000000087631
vn 0.499999940395 -0.000000300061 0.866025507450
vn -0.500000000000 -0.000000300061 0.866025388241
vn -0.500000059605 -0.000000298197 0.866025269032
vn -0.999999940395 -0.000000001864 0.000000175263
vn -1.000000000000 -0.000000007454 -0.000000109539
vn -0.500000059605 0.000000275721 -0.866025328636
vn -0.499999940395 0.000000268267 -0.866025507450
vn 0.500000059605 0.000000268267 -0.866025328636
vn 0.499999970198 0.000000275721 -0.866025507450
vn 0.000002470920 -1.000000000000 0.000005291114
vn -0.000000023817 -1.000000000000 -0.000001097975
vn 0.000000335587 -1.000000000000 -0.000000859554
vn 0.000002728053 -1.000000000000 0.000004637068
vn 0.000003412765 -1.000000000000 -0.000004879426
vn 0.000003121851 -1.000000000000 -0.000005123054
vn 0.000000167793 -1.000000000000 -0.000001181100
vn 0.000000041712 -1.000000000000 -0.000001077388
vn 0.000000361381 -1.000000000000 -0.000000399065
vn 0.000000382237 -1.000000000000 -0.000000383605
vn -0.000000436491 -1.000000000000 -0.000000414929
vn -0.000000388858 -1.000000000000 -0.000000435593
vn 0.500000000000 -0.000000141093 0.866025388241
vn 1.000000000000 -0.000000000000 0.000000021908
vn 1.000000000000 0.000000000000 -0.000000438157
vn 0.500000059605 -0.000000141093 0.866025388241
vn -0.499999940395 -0.000000141093 0.866025388241
vn -0.500000059605 -0.000000141093 0.866025388241
vn -1.000000000000 0.000000000000 -0.000000240986
vn -1.000000000000 0.000000000000 -0.000000290279
vn -0.499999940395 0.000000141093 -0.866025388241
vn -0.499999761581 0.000000141093 -0.866025567055
vn 0.499999880791 0.000000141093 -0.866025388241
vn 0.499999821186 0.000000141093 -0.866025567055
vn -0.000000006845 1.000000000000 0.000000217650
vn 0.000000000000 1.000000000000 0.000000600553
vn -0.000000025323 1.000000000000 0.000000589784
vn -0.000000054156 1.000000000000 0.000000223428
vn 0.000000429821 1.000000000000 0.000000360300
vn 0.000000436491 1.000000000000 0.000000414929
vn 0.000000000000 1.000000000000 0.000000162921
vn 0.866025447845 -0.000000081460 0.499999880791
vn 1.000000000000 0.000000000000 -0.000000087631
vn 1.000000000000 0.000000000000 -0.000000262894
vn 0.866025447845 -0.000000081460 0.499999821186
vn 0.000000000000 -0.000000162921 1.000000000000
vn -1.000000000000 -0.000000000000 0.000000021908
vn -0.866025507450 -0.000000081460 0.499999791384
vn -0.866025507450 -0.000000081460 0.499999821186
vn -1.000000000000 0.000000000000 -0.000000139663
vn -0.500000059605 0.000000141093 -0.866025388241
vn -0.499999970198 0.000000141093 -0.866025447845
vn 0.500000059605 0.000000141093 -0.866025328636
vn 0.500000059605 0.000000141093 -0.866025388241
vn 0.000000063167 -1.000000000000 -0.000000709961
vn 0.000000000000 -1.000000000000 -0.000001038185
vn -0.000000126334 -1.000000000000 -0.000000600553
vn 0.000000000000 -1.000000000000 -0.000000162921
vn 0.000000063167 -1.000000000000 -0.000000491145
vn 0.000000758002 -1.000000000000 -0.000000600553
vn 0.000000055458 1.000000000000 0.000000645454
vn -0.000000000000 1.000000000000 0.000000689892
vn 0.000000191118 1.000000000000 0.000000273263
vn 0.000000177254 1.000000000000 0.000000284373
vn 0.000000027729 1.000000000000 0.000000624872
vn -0.000000016553 1.000000000000 0.000000640639
vn -0.000000195079 1.000000000000 0.000000307568
vn -0.000000228185 1.000000000000 0.000000294664
vn 0.000000382237 1.000000000000 0.000000383605
vn 0.000000354508 1.000000000000 0.000000405824
vn -0.500000119209 0.000000002409 -0.866025269032
vn -1.000000000000 -0.000000000960 0.000000265632
vn -1.000000000000 0.000000000960 -0.000000262894
vn -0.499999970198 0.000000003368 -0.866025447845
vn 0.500000119209 0.000000003368 -0.866025328636
vn 0.500000119209 0.000000002409 -0.866025388241
vn 1.000000000000 0.000000000960 0.000000175263
vn 1.000000000000 -0.000000000960 -0.000000131447
vn 0.500000000000 -0.000000002409 0.866025447845
vn 0.500000059605 -0.000000003368 0.866025328636
vn -0.499999880791 -0.000000003368 0.866025567055
vn -0.500000238419 -0.000000002409 0.866025269032
vn 0.000000228185 1.000000000000 0.000000689892
vn 0.000000000000 1.000000000000 0.000000689892
vn 0.000000912742 1.000000000000 0.000000689892
# 87 vertex normals

vt 0.130440831184 0.016746463254 0.000000000000
vt 0.248318970203 0.011125421152 0.000000000000
vt 0.271050512791 0.574032545090 0.000000000000
vt 0.172467231750 0.587399363518 0.000000000000
vt 0.012242442928 0.025602919981 0.000000000000
vt 0.064472272992 0.609085083008 0.000000000000
vt 0.601501166821 0.016749041155 0.000000000000
vt 0.719709336758 0.025603046641 0.000000000000
vt 0.667502701283 0.609138488770 0.000000000000
vt 0.559411823750 0.587478756905 0.000000000000
vt 0.483618408442 0.011127434671 0.000000000000
vt 0.460834801197 0.574066281319 0.000000000000
vt 0.365968137980 0.009206151590 0.000000000000
vt 0.365945965052 0.569634556770 0.000000000000
vt 0.893061041832 0.377704977989 0.000000000000
vt 0.938442766666 0.299085974693 0.000000000000
vt 0.951327919960 0.299084126949 0.000000000000
vt 0.899504184723 0.388862848282 0.000000000000
vt 0.802288115025 0.377712249756 0.000000000000
vt 0.795846879482 0.388870835304 0.000000000000
vt 0.756938040257 0.299080193043 0.000000000000
vt 0.802329778671 0.377643883228 0.000000000000
vt 0.795893967152 0.388799190521 0.000000000000
vt 0.744059503078 0.299084126949 0.000000000000
vt 0.802280485630 0.220490142703 0.000000000000
vt 0.795837640762 0.209337010980 0.000000000000
vt 0.893037855625 0.220476463437 0.000000000000
vt 0.899477660656 0.209317728877 0.000000000000
vt 0.118397168815 0.893167078495 0.000000000000
vt 0.225339919329 0.898618757725 0.000000000000
vt 0.224193364382 0.921099603176 0.000000000000
vt 0.117251150310 0.915647089481 0.000000000000
vt 0.011455833912 0.887714564800 0.000000000000
vt 0.010309733450 0.910194456577 0.000000000000
vt 0.546221137047 0.915022790432 0.000000000000
vt 0.653192996979 0.920504033566 0.000000000000
vt 0.652040600777 0.942990124226 0.000000000000
vt 0.545069575310 0.937508881092 0.000000000000
vt 0.439251691103 0.909545481205 0.000000000000
vt 0.438100904226 0.932030618191 0.000000000000
vt 0.332287788391 0.904075562954 0.000000000000
vt 0.331139206886 0.926558434963 0.000000000000
vt 0.902224540710 0.002006651834 0.000000000000
vt 0.954487442970 0.092540629208 0.000000000000
vt 0.940719187260 0.092539764941 0.000000000000
vt 0.895339488983 0.013930324465 0.000000000000
vt 0.797685325146 0.002000000095 0.000000000000
vt 0.804569065571 0.013924692757 0.000000000000
vt 0.745442628860 0.092540644109 0.000000000000
vt 0.797704339027 0.002032502787 0.000000000000
vt 0.804586410522 0.013954146765 0.000000000000
vt 0.759208202362 0.092541433871 0.000000000000
vt 0.797694087029 0.183055996895 0.000000000000
vt 0.804577767849 0.171134576201 0.000000000000
vt 0.902215719223 0.183062046766 0.000000000000
vt 0.895332932472 0.171138912439 0.000000000000
vt 0.990924298763 0.625024259090 0.000000000000
vt 0.837221145630 0.627718389034 0.000000000000
vt 0.836601614952 0.592363715172 0.000000000000
vt 0.990304529667 0.589669108391 0.000000000000
vt 0.963902175426 0.543411970139 0.000000000000
vt 0.750449955463 0.543411970139 0.000000000000
vt 0.750449955463 0.494313299656 0.000000000000
vt 0.963902175426 0.494313299656 0.000000000000
vt 0.962099313736 0.468783199787 0.000000000000
vt 0.744787096977 0.462141871452 0.000000000000
vt 0.746314942837 0.412155538797 0.000000000000
vt 0.963626980782 0.418796747923 0.000000000000
vt 0.207493662834 0.976389706135 0.000000000000
vt 0.061131261289 0.976390063763 0.000000000000
vt 0.061131156981 0.942723393440 0.000000000000
vt 0.207493603230 0.942723155022 0.000000000000
vt 0.353856801987 0.976390063763 0.000000000000
vt 0.353856861591 0.942723274231 0.000000000000
vt 0.683519065380 0.630411028862 0.000000000000
vt 0.682899773121 0.595056474209 0.000000000000
vt 0.712646245956 0.662841022015 0.000000000000
vt 0.887706041336 0.662841022015 0.000000000000
vt 0.975235819817 0.814447462559 0.000000000000
vt 0.887705922127 0.966053485870 0.000000000000
vt 0.712646126747 0.966053366661 0.000000000000
vt 0.625116169453 0.814447283745 0.000000000000
vt 0.732372224331 0.898116886616 0.000000000000
vt 0.770734131336 0.898116886616 0.000000000000
vt 0.770734131336 0.906144082546 0.000000000000
vt 0.732372224331 0.906144082546 0.000000000000
vt 0.695036470890 0.898116886616 0.000000000000
vt 0.695036470890 0.906144082546 0.000000000000
vt 0.864133954048 0.898116886616 0.000000000000
vt 0.895230054855 0.898116886616 0.000000000000
vt 0.895230054855 0.906144082546 0.000000000000
vt 0.864133954048 0.906144082546 0.000000000000
vt 0.837950170040 0.898116886616 0.000000000000
vt 0.837950170040 0.906144082546 0.000000000000
vt 0.807380378246 0.898116886616 0.000000000000
vt 0.807380378246 0.906144082546 0.000000000000
vt 0.151970103383 0.075870588422 0.000000000000
vt 0.237953439355 0.075387373567 0.000000000000
vt 0.240033760667 0.445506632328 0.000000000000
vt 0.154050186276 0.445989906788 0.000000000000
vt 0.065986648202 0.076353862882 0.000000000000
vt 0.068066552281 0.446472942829 0.000000000000
vt 0.495903491974 0.073936954141 0.000000000000
vt 0.581887006760 0.073453322053 0.000000000000
vt 0.583968400955 0.443572878838 0.000000000000
vt 0.497984886169 0.444056332111 0.000000000000
vt 0.409919977188 0.074420526624 0.000000000000
vt 0.412001013756 0.444539785385 0.000000000000
vt 0.323936820030 0.074903920293 0.000000000000
vt 0.326017498970 0.445023059845 0.000000000000
vt 0.774865925312 0.771364331245 0.000000000000
vt 0.825920104980 0.772884607315 0.000000000000
vt 0.850130736828 0.817858994007 0.000000000000
vt 0.823287069798 0.861313164234 0.000000000000
vt 0.772232770920 0.859792947769 0.000000000000
vt 0.748022198677 0.814818620682 0.000000000000
# 116 texture coords

o Pistol_45mm_Case
g Pistol_45mm_Case
f 1/1/1 2/2/2 3/3/3 
f 3/3/3 4/4/4 1/1/1 
f 5/5/5 1/1/1 4/4/4 
f 4/4/4 6/6/6 5/5/5 
f 7/7/7 5/8/5 6/9/6 
f 6/9/6 8/10/8 7/7/7 
f 9/11/9 7/7/7 8/10/8 
f 8/10/8 10/12/10 9/11/9 
f 11/13/11 9/11/9 10/12/10 
f 10/12/10 12/14/12 11/13/11 
f 2/2/2 11/13/11 12/14/12 
f 12/14/12 3/3/3 2/2/2 
f 13/15/13 14/16/14 2/17/15 
f 2/17/15 1/18/16 13/15/13 
f 15/19/17 13/15/13 1/18/16 
f 1/18/16 5/20/18 15/19/17 
f 16/21/19 15/22/17 5/23/18 
f 5/23/18 7/24/20 16/21/19 
f 17/25/21 16/21/19 7/24/20 
f 7/24/20 9/26/22 17/25/21 
f 18/27/23 17/25/21 9/26/22 
f 9/26/22 11/28/24 18/27/23 
f 14/16/14 18/27/23 11/28/24 
f 11/28/24 2/17/15 14/16/14 
f 19/29/25 20/30/26 14/31/27 
f 14/31/27 13/32/28 19/29/25 
f 21/33/29 19/29/25 13/32/28 
f 13/32/28 15/34/30 21/33/29 
f 22/35/31 21/36/29 15/37/30 
f 15/37/30 16/38/32 22/35/31 
f 23/39/33 22/35/31 16/38/32 
f 16/38/32 17/40/34 23/39/33 
f 24/41/35 23/39/33 17/40/34 
f 17/40/34 18/42/36 24/41/35 
f 20/30/26 24/41/35 18/42/36 
f 18/42/36 14/31/27 20/30/26 
f 25/43/37 26/44/38 20/45/39 
f 20/45/39 19/46/40 25/43/37 
f 27/47/41 25/43/37 19/46/40 
f 19/46/40 21/48/42 27/47/41 
f 28/49/43 27/50/41 21/51/42 
f 21/51/42 22/52/43 28/49/43 
f 29/53/43 28/49/43 22/52/43 
f 22/52/43 23/54/43 29/53/43 
f 30/55/43 29/53/43 23/54/43 
f 23/54/43 24/56/43 30/55/43 
f 26/44/38 30/55/43 24/56/43 
f 24/56/43 20/45/39 26/44/38 
f 31/57/44 32/58/45 26/59/46 
f 26/59/46 25/60/47 31/57/44 
f 33/61/48 31/62/48 25/63/48 
f 25/63/48 27/64/48 33/61/48 
f 34/65/49 33/66/50 27/67/51 
f 27/67/51 28/68/52 34/65/49 
f 35/69/53 34/70/49 28/71/52 
f 28/71/52 29/72/54 35/69/53 
f 36/73/55 35/69/53 29/72/54 
f 29/72/54 30/74/56 36/73/55 
f 32/58/45 36/75/55 30/76/56 
f 30/76/56 26/59/46 32/58/45 
f 35/77/57 36/78/58 32/79/59 
f 32/79/59 31/80/60 33/81/61 
f 35/77/57 32/79/59 33/81/61 
f 35/77/57 33/81/61 34/82/62 
f 4/83/43 3/84/63 37/85/64 
f 37/85/64 38/86/43 4/83/43 
f 6/87/65 4/83/43 38/86/43 
f 38/86/43 39/88/66 6/87/65 
f 8/89/67 6/90/65 39/91/66 
f 39/91/66 40/92/68 8/89/67 
f 10/93/69 8/89/67 40/92/68 
f 40/92/68 41/94/70 10/93/69 
f 12/95/71 10/93/69 41/94/70 
f 41/94/70 42/96/72 12/95/71 
f 3/84/63 12/95/71 42/96/72 
f 42/96/72 37/85/64 3/84/63 
f 38/97/73 37/98/74 43/99/75 
f 43/99/75 44/100/76 38/97/73 
f 39/101/77 38/97/73 44/100/76 
f 44/100/76 45/102/78 39/101/77 
f 40/103/79 39/104/77 45/105/78 
f 45/105/78 46/106/80 40/103/79 
f 41/107/81 40/103/79 46/106/80 
f 46/106/80 47/108/82 41/107/81 
f 42/109/83 41/107/81 47/108/82 
f 47/108/82 48/110/84 42/109/83 
f 37/98/74 42/109/83 48/110/84 
f 48/110/84 43/99/75 37/98/74 
f 48/111/85 47/112/86 46/113/86 
f 46/113/86 45/114/86 44/115/85 
f 48/111/85 46/113/86 44/115/85 
f 43/116/87 48/111/85 44/115/85 
# 92 faces

#
# object Pistol_45mm_bullet
#

v  0.014154216275 0.051910810173 -0.000000819351
v  0.007077108137 0.051910806447 0.012257092632
v  0.007788618095 0.040460750461 0.013489467092
v  0.015577239916 0.040460754186 -0.000000821217
v  -0.007077110931 0.051910806447 0.012257092632
v  -0.007788619958 0.040460750461 0.013489467092
v  -0.014154216275 0.051910810173 -0.000000819351
v  -0.015577239916 0.040460757911 -0.000000821217
v  -0.007077106740 0.051910813898 -0.012258729897
v  -0.007788618095 0.040460769087 -0.013491108082
v  0.007077106740 0.051910813898 -0.012258729897
v  0.007788618095 0.040460769087 -0.013491108082
v  0.005373302847 0.057914808393 0.009306021035
v  0.010746608488 0.057914808393 -0.000000818373
v  -0.005373304244 0.057914808393 0.009306021035
v  -0.010746608488 0.057914808393 -0.000000818373
v  -0.005373302847 0.057914808393 -0.009307656437
v  0.005373302847 0.057914808393 -0.009307656437
v  0.006260446738 0.063819900155 -0.000000817411
v  0.003130223369 0.063819900155 0.005420892499
v  -0.003130223369 0.063819900155 0.005420892499
v  -0.006260446738 0.063819900155 -0.000000817411
v  -0.003130221972 0.063819900155 -0.005422527902
v  0.003130221972 0.063819900155 -0.005422527902
# 24 vertices

vn 0.954772651196 0.297336786985 0.000000001656
vn 0.477386444807 0.297336578369 0.826857447624
vn 0.496182620525 0.123331971467 0.859413743019
vn 0.992365479469 0.123332105577 0.000000179415
vn -0.477386415005 0.297336578369 0.826857388020
vn -0.496182531118 0.123331889510 0.859413743019
vn -0.954772710800 0.297336816788 -0.000000056828
vn -0.992365479469 0.123332068324 0.000000133895
vn -0.477386265993 0.297336906195 -0.826857268810
vn -0.496182739735 0.123332403600 -0.859413683414
vn 0.477386325598 0.297336876392 -0.826857268810
vn 0.496182888746 0.123332440853 -0.859413623810
vn 0.420565098524 0.540832638741 0.728440225124
vn 0.841130137444 0.540832817554 0.000000077349
vn -0.420565068722 0.540832638741 0.728440105915
vn -0.841130197048 0.540832817554 0.000000034292
vn -0.420565098524 0.540832877159 -0.728440105915
vn 0.420565038919 0.540832817554 -0.728440105915
vn 0.546997785568 0.837134063244 0.000000148384
vn 0.273499071598 0.837133884430 0.473714083433
vn -0.273498982191 0.837134003639 0.473714202642
vn -0.546997725964 0.837134122849 0.000000034407
vn -0.273498922586 0.837134003639 -0.473713874817
vn 0.273498862982 0.837134063244 -0.473713845015
vn -0.000000127412 -1.000000000000 -0.000000493948
vn 0.000000000000 -1.000000000000 -0.000000604290
vn -0.000000127412 -1.000000000000 -0.000000714632
vn 0.000000000000 -1.000000000000 -0.000001045659
vn -0.000000127412 -1.000000000000 -0.000000604290
vn 0.000000000000 -1.000000000000 -0.000000162921
# 30 vertex normals

vt 0.280369967222 0.643221855164 0.000000000000
vt 0.192845314741 0.661031603813 0.000000000000
vt 0.172467231750 0.587399363518 0.000000000000
vt 0.271050512791 0.574032545090 0.000000000000
vt 0.096356943250 0.698946118355 0.000000000000
vt 0.064472272992 0.609085083008 0.000000000000
vt 0.636086404324 0.698213458061 0.000000000000
vt 0.539224088192 0.660741686821 0.000000000000
vt 0.559411823750 0.587478756905 0.000000000000
vt 0.667502701283 0.609138488770 0.000000000000
vt 0.451549619436 0.643110990524 0.000000000000
vt 0.460834801197 0.574066281319 0.000000000000
vt 0.365941762924 0.637853026390 0.000000000000
vt 0.365945965052 0.569634556770 0.000000000000
vt 0.210357919335 0.704750180244 0.000000000000
vt 0.288488417864 0.686475396156 0.000000000000
vt 0.133856996894 0.746677994728 0.000000000000
vt 0.523076713085 0.705623269081 0.000000000000
vt 0.597810924053 0.747688889503 0.000000000000
vt 0.445452541113 0.686827301979 0.000000000000
vt 0.367026478052 0.681255459785 0.000000000000
vt 0.295444935560 0.745679259300 0.000000000000
vt 0.233086049557 0.761162877083 0.000000000000
vt 0.184641420841 0.790768384933 0.000000000000
vt 0.547495186329 0.790712237358 0.000000000000
vt 0.495700269938 0.760285615921 0.000000000000
vt 0.431693553925 0.745190382004 0.000000000000
vt 0.363335669041 0.740806102753 0.000000000000
vt 0.371775805950 0.858396410942 0.000000000000
vt 0.303885012865 0.863269329071 0.000000000000
vt 0.265719592571 0.806910753250 0.000000000000
vt 0.401501178741 0.797164797783 0.000000000000
vt 0.347705215216 0.581527173519 0.000000000000
vt 0.394503742456 0.635562777519 0.000000000000
vt 0.371106773615 0.703109383583 0.000000000000
vt 0.300911277533 0.716620326042 0.000000000000
vt 0.254112660885 0.662584662437 0.000000000000
vt 0.277509659529 0.595038115978 0.000000000000
# 38 texture coords

o Pistol_45mm_bullet
g Pistol_45mm_bullet
f 49/117/88 50/118/89 51/119/90 
f 51/119/90 52/120/91 49/117/88 
f 50/118/89 53/121/92 54/122/93 
f 54/122/93 51/119/90 50/118/89 
f 53/123/92 55/124/94 56/125/95 
f 56/125/95 54/126/93 53/123/92 
f 55/124/94 57/127/96 58/128/97 
f 58/128/97 56/125/95 55/124/94 
f 57/127/96 59/129/98 60/130/99 
f 60/130/99 58/128/97 57/127/96 
f 59/129/98 49/117/88 52/120/91 
f 52/120/91 60/130/99 59/129/98 
f 61/131/100 50/118/89 49/117/88 
f 49/117/88 62/132/101 61/131/100 
f 63/133/102 53/121/92 50/118/89 
f 50/118/89 61/131/100 63/133/102 
f 64/134/103 55/124/94 53/123/92 
f 53/123/92 63/135/102 64/134/103 
f 65/136/104 57/127/96 55/124/94 
f 55/124/94 64/134/103 65/136/104 
f 66/137/105 59/129/98 57/127/96 
f 57/127/96 65/136/104 66/137/105 
f 62/132/101 49/117/88 59/129/98 
f 59/129/98 66/137/105 62/132/101 
f 61/131/100 62/132/101 67/138/106 
f 67/138/106 68/139/107 61/131/100 
f 63/133/102 61/131/100 68/139/107 
f 68/139/107 69/140/108 63/133/102 
f 64/134/103 63/135/102 69/141/108 
f 69/141/108 70/142/109 64/134/103 
f 65/136/104 64/134/103 70/142/109 
f 70/142/109 71/143/110 65/136/104 
f 66/137/105 65/136/104 71/143/110 
f 71/143/110 72/144/111 66/137/105 
f 62/132/101 66/137/105 72/144/111 
f 72/144/111 67/138/106 62/132/101 
f 70/145/109 69/146/108 68/147/107 
f 68/147/107 67/138/106 72/144/111 
f 70/145/109 68/147/107 72/144/111 
f 70/145/109 72/144/111 71/148/110 
f 54/149/112 56/150/113 58/151/114 
f 58/151/114 60/152/115 52/153/116 
f 54/149/112 58/151/114 52/153/116 
f 51/154/117 54/149/112 52/153/116 
# 44 faces

