# 3ds Max Wavefront OBJ Exporter v0.97b - (c)2007 guruware
# File Created: 05.05.2020 20:40:52

mtllib cylinder.mtl

#
# object Cylinder001
#

v  0.0000 0.0000 -0.0000
v  0.3016 0.0000 -0.2531
v  0.3700 0.0000 -0.1347
v  0.3937 0.0000 -0.0000
v  0.0684 0.0000 -0.3877
v  0.1969 0.0000 -0.3410
v  -0.1969 0.0000 -0.3410
v  -0.0684 0.0000 -0.3877
v  -0.3700 0.0000 -0.1347
v  -0.3016 0.0000 -0.2531
v  -0.3700 0.0000 0.1347
v  -0.3937 0.0000 -0.0000
v  -0.1969 0.0000 0.3410
v  -0.3016 0.0000 0.2531
v  0.0684 0.0000 0.3877
v  -0.0684 0.0000 0.3877
v  0.3016 0.0000 0.2531
v  0.1969 0.0000 0.3410
v  0.3700 0.0000 0.1347
v  0.3700 0.1575 -0.1347
v  0.3937 0.1575 -0.0000
v  0.3016 0.1575 -0.2531
v  0.1969 0.1575 -0.3410
v  0.0684 0.1575 -0.3877
v  -0.0684 0.1575 -0.3877
v  -0.1969 0.1575 -0.3410
v  -0.3016 0.1575 -0.2531
v  -0.3700 0.1575 -0.1347
v  -0.3937 0.1575 -0.0000
v  -0.3700 0.1575 0.1347
v  -0.3016 0.1575 0.2531
v  -0.1969 0.1575 0.3410
v  -0.0684 0.1575 0.3877
v  0.0684 0.1575 0.3877
v  0.1969 0.1575 0.3410
v  0.3016 0.1575 0.2531
v  0.3700 0.1575 0.1347
v  0.3700 0.3150 -0.1347
v  0.3937 0.3150 -0.0000
v  0.3016 0.3150 -0.2531
v  0.1969 0.3150 -0.3410
v  0.0684 0.3150 -0.3877
v  -0.0684 0.3150 -0.3877
v  -0.1969 0.3150 -0.3410
v  -0.3016 0.3150 -0.2531
v  -0.3700 0.3150 -0.1347
v  -0.3937 0.3150 -0.0000
v  -0.3700 0.3150 0.1347
v  -0.3016 0.3150 0.2531
v  -0.1969 0.3150 0.3410
v  -0.0684 0.3150 0.3877
v  0.0684 0.3150 0.3877
v  0.1969 0.3150 0.3410
v  0.3016 0.3150 0.2531
v  0.3700 0.3150 0.1347
v  0.3700 0.4724 -0.1347
v  0.3937 0.4724 -0.0000
v  0.3016 0.4724 -0.2531
v  0.1969 0.4724 -0.3410
v  0.0684 0.4724 -0.3877
v  -0.0684 0.4724 -0.3877
v  -0.1969 0.4724 -0.3410
v  -0.3016 0.4724 -0.2531
v  -0.3700 0.4724 -0.1347
v  -0.3937 0.4724 -0.0000
v  -0.3700 0.4724 0.1347
v  -0.3016 0.4724 0.2531
v  -0.1969 0.4724 0.3410
v  -0.0684 0.4724 0.3877
v  0.0684 0.4724 0.3877
v  0.1969 0.4724 0.3410
v  0.3016 0.4724 0.2531
v  0.3700 0.4724 0.1347
v  0.3700 0.6299 -0.1347
v  0.3937 0.6299 -0.0000
v  0.3016 0.6299 -0.2531
v  0.1969 0.6299 -0.3410
v  0.0684 0.6299 -0.3877
v  -0.0684 0.6299 -0.3877
v  -0.1969 0.6299 -0.3410
v  -0.3016 0.6299 -0.2531
v  -0.3700 0.6299 -0.1347
v  -0.3937 0.6299 -0.0000
v  -0.3700 0.6299 0.1347
v  -0.3016 0.6299 0.2531
v  -0.1969 0.6299 0.3410
v  -0.0684 0.6299 0.3877
v  0.0684 0.6299 0.3877
v  0.1969 0.6299 0.3410
v  0.3016 0.6299 0.2531
v  0.3700 0.6299 0.1347
v  0.3700 0.7874 -0.1347
v  0.3937 0.7874 -0.0000
v  0.3016 0.7874 -0.2531
v  0.1969 0.7874 -0.3410
v  0.0684 0.7874 -0.3877
v  -0.0684 0.7874 -0.3877
v  -0.1969 0.7874 -0.3410
v  -0.3016 0.7874 -0.2531
v  -0.3700 0.7874 -0.1347
v  -0.3937 0.7874 -0.0000
v  -0.3700 0.7874 0.1347
v  -0.3016 0.7874 0.2531
v  -0.1969 0.7874 0.3410
v  -0.0684 0.7874 0.3877
v  0.0684 0.7874 0.3877
v  0.1969 0.7874 0.3410
v  0.3016 0.7874 0.2531
v  0.3700 0.7874 0.1347
v  0.0000 0.7874 -0.0000
# 110 vertices

vn 0.0000 -1.0000 -0.0000
vn 0.5686 -0.6701 -0.4771
vn 0.6975 -0.6701 -0.2539
vn 0.7423 -0.6701 0.0000
vn 0.1289 -0.6701 -0.7310
vn 0.3711 -0.6701 -0.6428
vn -0.3712 -0.6700 -0.6429
vn -0.1289 -0.6700 -0.7311
vn -0.6975 -0.6701 -0.2539
vn -0.5687 -0.6700 -0.4772
vn -0.6976 -0.6700 0.2539
vn -0.7423 -0.6701 0.0000
vn -0.3712 -0.6700 0.6429
vn -0.5687 -0.6700 0.4772
vn 0.1289 -0.6701 0.7310
vn -0.1289 -0.6700 0.7311
vn 0.5687 -0.6700 0.4772
vn 0.3712 -0.6701 0.6428
vn 0.6975 -0.6701 0.2539
vn 0.9397 0.0000 -0.3420
vn 1.0000 0.0000 0.0000
vn 0.7661 0.0000 -0.6428
vn 0.5000 0.0000 -0.8660
vn 0.1736 0.0000 -0.9848
vn -0.1736 0.0000 -0.9848
vn -0.5000 0.0000 -0.8660
vn -0.7660 0.0000 -0.6428
vn -0.9397 0.0000 -0.3420
vn -1.0000 0.0000 0.0000
vn -0.9397 0.0000 0.3420
vn -0.7660 0.0000 0.6428
vn -0.5000 0.0000 0.8660
vn -0.1736 0.0000 0.9848
vn 0.1736 0.0000 0.9848
vn 0.5000 0.0000 0.8660
vn 0.7660 0.0000 0.6428
vn 0.9397 0.0000 0.3420
vn 0.6975 0.6701 -0.2539
vn 0.7423 0.6701 0.0000
vn 0.5686 0.6701 -0.4771
vn 0.3711 0.6701 -0.6428
vn 0.1289 0.6701 -0.7310
vn -0.1289 0.6700 -0.7311
vn -0.3712 0.6700 -0.6429
vn -0.5687 0.6700 -0.4772
vn -0.6975 0.6701 -0.2539
vn -0.7423 0.6701 0.0000
vn -0.6976 0.6700 0.2539
vn -0.5687 0.6700 0.4772
vn -0.3712 0.6700 0.6429
vn -0.1289 0.6700 0.7311
vn 0.1289 0.6701 0.7310
vn 0.3712 0.6701 0.6428
vn 0.5687 0.6700 0.4772
vn 0.6975 0.6701 0.2539
vn 0.0000 1.0000 -0.0000
# 56 vertex normals

vt 0.5000 0.0000 0.0000
vt 0.8611 0.0000 1.0000
vt 0.8056 0.0000 1.0000
vt 0.7500 0.0000 1.0000
vt 0.9722 0.0000 1.0000
vt 0.9167 0.0000 1.0000
vt 0.0833 0.0000 1.0000
vt 0.0278 0.0000 1.0000
vt -0.0278 0.0000 1.0000
vt 0.1944 0.0000 1.0000
vt 0.1389 0.0000 1.0000
vt 0.3056 0.0000 1.0000
vt 0.2500 0.0000 1.0000
vt 0.4167 0.0000 1.0000
vt 0.3611 0.0000 1.0000
vt 0.5278 0.0000 1.0000
vt 0.4722 0.0000 1.0000
vt 0.6389 0.0000 1.0000
vt 0.5833 0.0000 1.0000
vt 0.6944 0.0000 1.0000
vt 0.8056 0.2000 1.0000
vt 0.7500 0.2000 1.0000
vt 0.8611 0.2000 1.0000
vt 0.9167 0.2000 1.0000
vt 0.9722 0.2000 1.0000
vt 0.0278 0.2000 1.0000
vt -0.0278 0.2000 1.0000
vt 0.0833 0.2000 1.0000
vt 0.1389 0.2000 1.0000
vt 0.1944 0.2000 1.0000
vt 0.2500 0.2000 1.0000
vt 0.3056 0.2000 1.0000
vt 0.3611 0.2000 1.0000
vt 0.4167 0.2000 1.0000
vt 0.4722 0.2000 1.0000
vt 0.5278 0.2000 1.0000
vt 0.5833 0.2000 1.0000
vt 0.6389 0.2000 1.0000
vt 0.6944 0.2000 1.0000
vt 0.8056 0.4000 1.0000
vt 0.7500 0.4000 1.0000
vt 0.8611 0.4000 1.0000
vt 0.9167 0.4000 1.0000
vt 0.9722 0.4000 1.0000
vt 0.0278 0.4000 1.0000
vt -0.0278 0.4000 1.0000
vt 0.0833 0.4000 1.0000
vt 0.1389 0.4000 1.0000
vt 0.1944 0.4000 1.0000
vt 0.2500 0.4000 1.0000
vt 0.3056 0.4000 1.0000
vt 0.3611 0.4000 1.0000
vt 0.4167 0.4000 1.0000
vt 0.4722 0.4000 1.0000
vt 0.5278 0.4000 1.0000
vt 0.5833 0.4000 1.0000
vt 0.6389 0.4000 1.0000
vt 0.6944 0.4000 1.0000
vt 0.8056 0.6000 1.0000
vt 0.7500 0.6000 1.0000
vt 0.8611 0.6000 1.0000
vt 0.9167 0.6000 1.0000
vt 0.9722 0.6000 1.0000
vt 0.0278 0.6000 1.0000
vt -0.0278 0.6000 1.0000
vt 0.0833 0.6000 1.0000
vt 0.1389 0.6000 1.0000
vt 0.1944 0.6000 1.0000
vt 0.2500 0.6000 1.0000
vt 0.3056 0.6000 1.0000
vt 0.3611 0.6000 1.0000
vt 0.4167 0.6000 1.0000
vt 0.4722 0.6000 1.0000
vt 0.5278 0.6000 1.0000
vt 0.5833 0.6000 1.0000
vt 0.6389 0.6000 1.0000
vt 0.6944 0.6000 1.0000
vt 0.8056 0.8000 1.0000
vt 0.7500 0.8000 1.0000
vt 0.8611 0.8000 1.0000
vt 0.9167 0.8000 1.0000
vt 0.9722 0.8000 1.0000
vt 0.0278 0.8000 1.0000
vt -0.0278 0.8000 1.0000
vt 0.0833 0.8000 1.0000
vt 0.1389 0.8000 1.0000
vt 0.1944 0.8000 1.0000
vt 0.2500 0.8000 1.0000
vt 0.3056 0.8000 1.0000
vt 0.3611 0.8000 1.0000
vt 0.4167 0.8000 1.0000
vt 0.4722 0.8000 1.0000
vt 0.5278 0.8000 1.0000
vt 0.5833 0.8000 1.0000
vt 0.6389 0.8000 1.0000
vt 0.6944 0.8000 1.0000
vt 0.8056 1.0000 1.0000
vt 0.7500 1.0000 1.0000
vt 0.8611 1.0000 1.0000
vt 0.9167 1.0000 1.0000
vt 0.9722 1.0000 1.0000
vt 0.0278 1.0000 1.0000
vt -0.0278 1.0000 1.0000
vt 0.0833 1.0000 1.0000
vt 0.1389 1.0000 1.0000
vt 0.1944 1.0000 1.0000
vt 0.2500 1.0000 1.0000
vt 0.3056 1.0000 1.0000
vt 0.3611 1.0000 1.0000
vt 0.4167 1.0000 1.0000
vt 0.4722 1.0000 1.0000
vt 0.5278 1.0000 1.0000
vt 0.5833 1.0000 1.0000
vt 0.6389 1.0000 1.0000
vt 0.6944 1.0000 1.0000
vt 0.5000 1.0000 0.0000
vt 0.9708 1.0000 0.8794
# 117 texture coords

o Cylinder001
g Cylinder001
usemtl wire_177148027
s 1
f 1/1/1 2/2/2 3/3/3 4/4/4 
f 1/1/1 5/5/5 6/6/6 2/2/2 
f 1/1/1 7/7/7 8/8/8 5/9/5 
f 1/1/1 9/10/9 10/11/10 7/7/7 
f 1/1/1 11/12/11 12/13/12 9/10/9 
f 1/1/1 13/14/13 14/15/14 11/12/11 
f 1/1/1 15/16/15 16/17/16 13/14/13 
f 1/1/1 17/18/17 18/19/18 15/16/15 
f 1/1/1 4/4/4 19/20/19 17/18/17 
s 8
f 4/4/4 3/3/3 20/21/20 21/22/21 
f 3/3/3 2/2/2 22/23/22 20/21/20 
f 2/2/2 6/6/6 23/24/23 22/23/22 
f 6/6/6 5/5/5 24/25/24 23/24/23 
f 5/9/5 8/8/8 25/26/25 24/27/24 
f 8/8/8 7/7/7 26/28/26 25/26/25 
f 7/7/7 10/11/10 27/29/27 26/28/26 
f 10/11/10 9/10/9 28/30/28 27/29/27 
f 9/10/9 12/13/12 29/31/29 28/30/28 
f 12/13/12 11/12/11 30/32/30 29/31/29 
f 11/12/11 14/15/14 31/33/31 30/32/30 
f 14/15/14 13/14/13 32/34/32 31/33/31 
f 13/14/13 16/17/16 33/35/33 32/34/32 
f 16/17/16 15/16/15 34/36/34 33/35/33 
f 15/16/15 18/19/18 35/37/35 34/36/34 
f 18/19/18 17/18/17 36/38/36 35/37/35 
f 17/18/17 19/20/19 37/39/37 36/38/36 
f 19/20/19 4/4/4 21/22/21 37/39/37 
f 21/22/21 20/21/20 38/40/20 39/41/21 
f 20/21/20 22/23/22 40/42/22 38/40/20 
f 22/23/22 23/24/23 41/43/23 40/42/22 
f 23/24/23 24/25/24 42/44/24 41/43/23 
f 24/27/24 25/26/25 43/45/25 42/46/24 
f 25/26/25 26/28/26 44/47/26 43/45/25 
f 26/28/26 27/29/27 45/48/27 44/47/26 
f 27/29/27 28/30/28 46/49/28 45/48/27 
f 28/30/28 29/31/29 47/50/29 46/49/28 
f 29/31/29 30/32/30 48/51/30 47/50/29 
f 30/32/30 31/33/31 49/52/31 48/51/30 
f 31/33/31 32/34/32 50/53/32 49/52/31 
f 32/34/32 33/35/33 51/54/33 50/53/32 
f 33/35/33 34/36/34 52/55/34 51/54/33 
f 34/36/34 35/37/35 53/56/35 52/55/34 
f 35/37/35 36/38/36 54/57/36 53/56/35 
f 36/38/36 37/39/37 55/58/37 54/57/36 
f 37/39/37 21/22/21 39/41/21 55/58/37 
f 39/41/21 38/40/20 56/59/20 57/60/21 
f 38/40/20 40/42/22 58/61/22 56/59/20 
f 40/42/22 41/43/23 59/62/23 58/61/22 
f 41/43/23 42/44/24 60/63/24 59/62/23 
f 42/46/24 43/45/25 61/64/25 60/65/24 
f 43/45/25 44/47/26 62/66/26 61/64/25 
f 44/47/26 45/48/27 63/67/27 62/66/26 
f 45/48/27 46/49/28 64/68/28 63/67/27 
f 46/49/28 47/50/29 65/69/29 64/68/28 
f 47/50/29 48/51/30 66/70/30 65/69/29 
f 48/51/30 49/52/31 67/71/31 66/70/30 
f 49/52/31 50/53/32 68/72/32 67/71/31 
f 50/53/32 51/54/33 69/73/33 68/72/32 
f 51/54/33 52/55/34 70/74/34 69/73/33 
f 52/55/34 53/56/35 71/75/35 70/74/34 
f 53/56/35 54/57/36 72/76/36 71/75/35 
f 54/57/36 55/58/37 73/77/37 72/76/36 
f 55/58/37 39/41/21 57/60/21 73/77/37 
f 57/60/21 56/59/20 74/78/20 75/79/21 
f 56/59/20 58/61/22 76/80/22 74/78/20 
f 58/61/22 59/62/23 77/81/23 76/80/22 
f 59/62/23 60/63/24 78/82/24 77/81/23 
f 60/65/24 61/64/25 79/83/25 78/84/24 
f 61/64/25 62/66/26 80/85/26 79/83/25 
f 62/66/26 63/67/27 81/86/27 80/85/26 
f 63/67/27 64/68/28 82/87/28 81/86/27 
f 64/68/28 65/69/29 83/88/29 82/87/28 
f 65/69/29 66/70/30 84/89/30 83/88/29 
f 66/70/30 67/71/31 85/90/31 84/89/30 
f 67/71/31 68/72/32 86/91/32 85/90/31 
f 68/72/32 69/73/33 87/92/33 86/91/32 
f 69/73/33 70/74/34 88/93/34 87/92/33 
f 70/74/34 71/75/35 89/94/35 88/93/34 
f 71/75/35 72/76/36 90/95/36 89/94/35 
f 72/76/36 73/77/37 91/96/37 90/95/36 
f 73/77/37 57/60/21 75/79/21 91/96/37 
f 75/79/21 74/78/20 92/97/38 93/98/39 
f 74/78/20 76/80/22 94/99/40 92/97/38 
f 76/80/22 77/81/23 95/100/41 94/99/40 
f 77/81/23 78/82/24 96/101/42 95/100/41 
f 78/84/24 79/83/25 97/102/43 96/103/42 
f 79/83/25 80/85/26 98/104/44 97/102/43 
f 80/85/26 81/86/27 99/105/45 98/104/44 
f 81/86/27 82/87/28 100/106/46 99/105/45 
f 82/87/28 83/88/29 101/107/47 100/106/46 
f 83/88/29 84/89/30 102/108/48 101/107/47 
f 84/89/30 85/90/31 103/109/49 102/108/48 
f 85/90/31 86/91/32 104/110/50 103/109/49 
f 86/91/32 87/92/33 105/111/51 104/110/50 
f 87/92/33 88/93/34 106/112/52 105/111/51 
f 88/93/34 89/94/35 107/113/53 106/112/52 
f 89/94/35 90/95/36 108/114/54 107/113/53 
f 90/95/36 91/96/37 109/115/55 108/114/54 
f 91/96/37 75/79/21 93/98/39 109/115/55 
s 1
f 110/116/56 109/115/55 93/98/39 92/97/38 
f 110/116/56 92/97/38 94/99/40 95/100/41 
f 110/116/56 95/100/41 96/101/42 97/117/43 
f 110/116/56 97/102/43 98/104/44 99/105/45 
f 110/116/56 99/105/45 100/106/46 101/107/47 
f 110/116/56 101/107/47 102/108/48 103/109/49 
f 110/116/56 103/109/49 104/110/50 105/111/51 
f 110/116/56 105/111/51 106/112/52 107/113/53 
f 110/116/56 107/113/53 108/114/54 109/115/55 
# 108 polygons

