# 3ds Max Wavefront OBJ Exporter v0.97b - (c)2007 guruware
# File Created: 03.06.2020 23:13:14

#
# object Cylinder001
#

v  3.4392781258 -0.0000002384 -0.0000000000
v  3.2318644524 -0.0000002384 -1.1763023138
v  2.6346402168 -0.0000002384 -2.2107253075
v  1.7196393013 -0.0000002384 -2.9785022736
v  0.5972247124 -0.0000002384 -3.3870277405
v  -0.5972241759 -0.0000002384 -3.3870272636
v  -1.7196384668 -0.0000002384 -2.9785017967
v  -2.6346392632 -0.0000002384 -2.2107253075
v  -3.2318630219 -0.0000002384 -1.1763024330
v  -3.4392771721 -0.0000002384 -0.0000004768
v  -3.2318634987 -0.0000002384 1.1763015985
v  -2.6346397400 -0.0000002384 2.2107243538
v  -1.7196394205 -0.0000002384 2.9785008430
v  -0.5972251892 -0.0000002384 3.3870267868
v  0.5972232819 -0.0000002384 3.3870277405
v  1.7196376324 -0.0000002384 2.9785027504
v  2.6346387863 -0.0000002384 2.2107267380
v  3.2318634987 -0.0000002384 1.1763044596
# 18 vertices

vn 0.0000000000 1.0000000000 -0.0000000000
# 1 vertex normals

vt 0.7500000000 1.0000000000 1.0000000000
vt 0.8055555224 1.0000000000 1.0000000000
vt 0.8611110449 1.0000000000 1.0000000000
vt 0.9166666865 1.0000000000 1.0000000000
vt 0.9722222090 1.0000000000 1.0000000000
vt 0.9708207250 1.0000000000 0.8793851733
vt 0.9126313925 1.0000000000 0.6527035236
vt 0.8046726584 1.0000000000 0.3472962379
vt 0.6599658728 1.0000000000 -0.0000000596
vt 0.4959648252 1.0000000000 -0.3472964168
vt 0.3324504495 1.0000000000 -0.6527037621
vt 0.1891450435 1.0000000000 -0.8793854713
vt 0.0833333358 1.0000000000 -1.0000002384
vt 0.0277777240 1.0000000000 -1.0000003576
vt 0.0291790515 1.0000000000 -0.8793857694
vt 0.0873683468 1.0000000000 -0.6527042389
vt 0.1953270733 1.0000000000 -0.3472970128
vt 0.6944442987 1.0000000000 1.0000000000
# 18 texture coords

o Cylinder001
g Cylinder001
f 1/1/1 2/2/1 3/3/1 
f 3/3/1 4/4/1 5/5/1 
f 5/5/1 6/6/1 7/7/1 
f 3/3/1 5/5/1 7/7/1 
f 7/7/1 8/8/1 9/9/1 
f 9/9/1 10/10/1 11/11/1 
f 7/7/1 9/9/1 11/11/1 
f 11/11/1 12/12/1 13/13/1 
f 13/13/1 14/14/1 15/15/1 
f 11/11/1 13/13/1 15/15/1 
f 7/7/1 11/11/1 15/15/1 
f 3/3/1 7/7/1 15/15/1 
f 15/15/1 16/16/1 17/17/1 
f 3/3/1 15/15/1 17/17/1 
f 1/1/1 3/3/1 17/17/1 
f 18/18/1 1/1/1 17/17/1 
# 16 faces

