# Blender v2.80 (sub 75) OBJ File: 'LabFoor.blend'
# www.blender.org
mtllib LabFoor.mtl
o Cube
v 50.000000 0.500000 -35.000000
v 50.000000 -0.500000 -35.000000
v 50.000000 0.500000 35.000000
v 50.000000 -0.500000 35.000000
v -50.000000 0.500000 -35.000000
v -50.000000 -0.500000 -35.000000
v -50.000000 0.500000 35.000000
v -50.000000 -0.500000 35.000000
vt 10.080412 -9.499999
vt 10.080416 4.785712
vt 0.290211 4.785713
vt 0.290208 -9.499998
vt 10.220278 -9.499999
vt 10.360138 -9.499999
vt 10.360140 4.785714
vt 10.220280 4.785714
vt 10.500000 0.499999
vt 10.360142 0.499999
vt 10.360140 -9.499999
vt 10.500000 -9.499999
vt -9.499997 4.785713
vt -9.500000 -9.499998
vt 0.290205 -9.499999
vt 0.290208 4.785712
vt 10.500000 10.499999
vt 10.360140 10.499999
vt 10.360140 0.499999
vt 10.500000 0.499999
vt 10.220279 4.785714
vt 10.220276 -9.499999
vn 0.0000 1.0000 0.0000
vn 0.0000 0.0000 1.0000
vn -1.0000 0.0000 0.0000
vn 0.0000 -1.0000 0.0000
vn 1.0000 0.0000 0.0000
vn 0.0000 0.0000 -1.0000
usemtl Material
s off
f 1/1/1 5/2/1 7/3/1 3/4/1
f 4/5/2 3/6/2 7/7/2 8/8/2
f 8/9/3 7/10/3 5/11/3 6/12/3
f 6/13/4 2/14/4 4/15/4 8/16/4
f 2/17/5 1/18/5 3/19/5 4/20/5
f 6/21/6 5/2/6 1/1/6 2/22/6
