# Blender v2.80 (sub 75) OBJ File: 'outerWall.blend'
# www.blender.org
mtllib outerWall.mtl
o Cube
v 32.500000 2.100000 -0.500000
v 32.500000 -2.100000 -0.500000
v 32.500000 2.100000 0.500000
v 32.500000 -2.100000 0.500000
v -32.500000 2.100000 -0.500000
v -32.500000 -2.100000 -0.500000
v -32.500000 2.100000 0.500000
v -32.500000 -2.100000 0.500000
vt -7.156614 -9.734461
vt 10.984468 7.851332
vt 10.705345 8.139269
vt -7.435738 -9.446524
vt -8.887185 -7.949246
vt -7.714867 -9.158583
vt 10.426219 8.427214
vt 9.253897 9.636549
vt -5.984417 -8.598152
vt -7.156610 -9.734465
vt -6.877485 -10.022404
vt -5.705294 -8.886089
vt 10.426218 8.427208
vt -7.714863 -9.158585
vt -7.435740 -9.446522
vt 10.705340 8.139271
vt -5.705294 -8.886089
vt -4.533099 -7.749775
vt -4.812223 -7.461838
vt -5.984417 -8.598150
vt 9.253895 9.636553
vt 8.081573 10.845886
vt -10.059506 -6.739907
vt -8.887188 -7.949241
vn 0.0000 1.0000 0.0000
vn 0.0000 0.0000 1.0000
vn -1.0000 0.0000 0.0000
vn 0.0000 -1.0000 0.0000
vn 1.0000 0.0000 0.0000
vn 0.0000 0.0000 -1.0000
usemtl Material
s off
f 1/1/1 5/2/1 7/3/1 3/4/1
f 4/5/2 3/6/2 7/7/2 8/8/2
f 8/9/3 7/10/3 5/11/3 6/12/3
f 6/13/4 2/14/4 4/15/4 8/16/4
f 2/17/5 1/18/5 3/19/5 4/20/5
f 6/21/6 5/22/6 1/23/6 2/24/6
